<svg class="main-svg" xmlns="http://www.w3.org/2000/svg" xmlns:xlink="http://www.w3.org/1999/xlink" width="800" height="500" style="" viewBox="0 0 800 500"><rect x="0" y="0" width="800" height="500" style="fill: rgb(255, 255, 255); fill-opacity: 1;"/><defs id="defs-887a80"><g class="clips"><clipPath id="clip887a80xyplot" class="plotclip"><rect width="692" height="393"/></clipPath><clipPath class="axesclip" id="clip887a80x"><rect x="58" y="0" width="692" height="500"/></clipPath><clipPath class="axesclip" id="clip887a80y"><rect x="0" y="50" width="800" height="393"/></clipPath><clipPath class="axesclip" id="clip887a80xy"><rect x="58" y="50" width="692" height="393"/></clipPath></g><g class="gradients"/><g class="patterns"/></defs><g class="bglayer"/><g class="layer-below"><g class="imagelayer"/><g class="shapelayer"/></g><g class="cartesianlayer"><g class="subplot xy"><g class="layer-subplot"><g class="shapelayer"/><g class="imagelayer"/></g><g class="minor-gridlayer"><g class="x"/><g class="y"/></g><g class="gridlayer"><g class="x"><path class="xgrid crisp" transform="translate(113.91,0)" d="M0,50v393" style="stroke: rgb(211, 211, 211); stroke-opacity: 1; stroke-width: 1px;"/><path class="xgrid crisp" transform="translate(195.49,0)" d="M0,50v393" style="stroke: rgb(211, 211, 211); stroke-opacity: 1; stroke-width: 1px;"/><path class="xgrid crisp" transform="translate(277.06,0)" d="M0,50v393" style="stroke: rgb(211, 211, 211); stroke-opacity: 1; stroke-width: 1px;"/><path class="xgrid crisp" transform="translate(358.63,0)" d="M0,50v393" style="stroke: rgb(211, 211, 211); stroke-opacity: 1; stroke-width: 1px;"/><path class="xgrid crisp" transform="translate(440.2,0)" d="M0,50v393" style="stroke: rgb(211, 211, 211); stroke-opacity: 1; stroke-width: 1px;"/><path class="xgrid crisp" transform="translate(521.78,0)" d="M0,50v393" style="stroke: rgb(211, 211, 211); stroke-opacity: 1; stroke-width: 1px;"/><path class="xgrid crisp" transform="translate(603.35,0)" d="M0,50v393" style="stroke: rgb(211, 211, 211); stroke-opacity: 1; stroke-width: 1px;"/><path class="xgrid crisp" transform="translate(684.92,0)" d="M0,50v393" style="stroke: rgb(211, 211, 211); stroke-opacity: 1; stroke-width: 1px;"/></g><g class="y"><path class="ygrid crisp" transform="translate(0,376.44)" d="M58,0h692" style="stroke: rgb(211, 211, 211); stroke-opacity: 1; stroke-width: 1px;"/><path class="ygrid crisp" transform="translate(0,334.52)" d="M58,0h692" style="stroke: rgb(211, 211, 211); stroke-opacity: 1; stroke-width: 1px;"/><path class="ygrid crisp" transform="translate(0,292.61)" d="M58,0h692" style="stroke: rgb(211, 211, 211); stroke-opacity: 1; stroke-width: 1px;"/><path class="ygrid crisp" transform="translate(0,250.69)" d="M58,0h692" style="stroke: rgb(211, 211, 211); stroke-opacity: 1; stroke-width: 1px;"/><path class="ygrid crisp" transform="translate(0,208.78)" d="M58,0h692" style="stroke: rgb(211, 211, 211); stroke-opacity: 1; stroke-width: 1px;"/><path class="ygrid crisp" transform="translate(0,166.86)" d="M58,0h692" style="stroke: rgb(211, 211, 211); stroke-opacity: 1; stroke-width: 1px;"/><path class="ygrid crisp" transform="translate(0,124.95)" d="M58,0h692" style="stroke: rgb(211, 211, 211); stroke-opacity: 1; stroke-width: 1px;"/><path class="ygrid crisp" transform="translate(0,83.03)" d="M58,0h692" style="stroke: rgb(211, 211, 211); stroke-opacity: 1; stroke-width: 1px;"/></g></g><g class="zerolinelayer"><path class="yzl zl crisp" transform="translate(0,418.35)" d="M58,0h692" style="stroke: rgb(255, 255, 255); stroke-opacity: 1; stroke-width: 2px;"/></g><g class="layer-between"><g class="shapelayer"/><g class="imagelayer"/></g><path class="xlines-below"/><path class="ylines-below"/><g class="overlines-below"/><g class="xaxislayer-below"/><g class="yaxislayer-below"/><g class="overaxes-below"/><g class="overplot"><g class="xy" transform="translate(58,50)" clip-path="url(#clip887a80xyplot)"><g class="scatterlayer mlayer"><g class="trace scatter trace929c68" style="stroke-miterlimit: 2; opacity: 1;"><g class="fills"/><g class="errorbars"/><g class="lines"><path class="js-line" d="M39.6,322.24L55.91,280.33L72.23,49.8L88.54,276.14L104.86,259.37L137.49,196.5L153.8,179.73L170.12,276.14L186.43,183.93L202.74,267.75L251.69,209.07L268,200.69L284.32,234.22L316.95,217.46L333.26,179.73L349.58,230.03L365.89,225.84L382.2,368.35L398.52,24.65L414.83,217.46L431.15,213.27L447.46,183.93L463.78,217.46L496.41,217.46L512.72,175.54L529.03,175.54L545.35,204.88L561.66,204.88" style="vector-effect: none; fill: none; stroke: rgb(31, 119, 180); stroke-opacity: 1; stroke-width: 3px; opacity: 1;"/></g><g class="points"><path class="point" transform="translate(39.6,322.24)" d="M4,0A4,4 0 1,1 0,-4A4,4 0 0,1 4,0Z" style="opacity: 1; stroke-width: 0px; fill: rgb(31, 119, 180); fill-opacity: 1;"/><path class="point" transform="translate(55.91,280.33)" d="M4,0A4,4 0 1,1 0,-4A4,4 0 0,1 4,0Z" style="opacity: 1; stroke-width: 0px; fill: rgb(31, 119, 180); fill-opacity: 1;"/><path class="point" transform="translate(72.23,49.8)" d="M4,0A4,4 0 1,1 0,-4A4,4 0 0,1 4,0Z" style="opacity: 1; stroke-width: 0px; fill: rgb(31, 119, 180); fill-opacity: 1;"/><path class="point" transform="translate(88.54,276.14)" d="M4,0A4,4 0 1,1 0,-4A4,4 0 0,1 4,0Z" style="opacity: 1; stroke-width: 0px; fill: rgb(31, 119, 180); fill-opacity: 1;"/><path class="point" transform="translate(104.86,259.37)" d="M4,0A4,4 0 1,1 0,-4A4,4 0 0,1 4,0Z" style="opacity: 1; stroke-width: 0px; fill: rgb(31, 119, 180); fill-opacity: 1;"/><path class="point" transform="translate(137.49,196.5)" d="M4,0A4,4 0 1,1 0,-4A4,4 0 0,1 4,0Z" style="opacity: 1; stroke-width: 0px; fill: rgb(31, 119, 180); fill-opacity: 1;"/><path class="point" transform="translate(153.8,179.73)" d="M4,0A4,4 0 1,1 0,-4A4,4 0 0,1 4,0Z" style="opacity: 1; stroke-width: 0px; fill: rgb(31, 119, 180); fill-opacity: 1;"/><path class="point" transform="translate(170.12,276.14)" d="M4,0A4,4 0 1,1 0,-4A4,4 0 0,1 4,0Z" style="opacity: 1; stroke-width: 0px; fill: rgb(31, 119, 180); fill-opacity: 1;"/><path class="point" transform="translate(186.43,183.93)" d="M4,0A4,4 0 1,1 0,-4A4,4 0 0,1 4,0Z" style="opacity: 1; stroke-width: 0px; fill: rgb(31, 119, 180); fill-opacity: 1;"/><path class="point" transform="translate(202.74,267.75)" d="M4,0A4,4 0 1,1 0,-4A4,4 0 0,1 4,0Z" style="opacity: 1; stroke-width: 0px; fill: rgb(31, 119, 180); fill-opacity: 1;"/><path class="point" transform="translate(251.69,209.07)" d="M4,0A4,4 0 1,1 0,-4A4,4 0 0,1 4,0Z" style="opacity: 1; stroke-width: 0px; fill: rgb(31, 119, 180); fill-opacity: 1;"/><path class="point" transform="translate(268,200.69)" d="M4,0A4,4 0 1,1 0,-4A4,4 0 0,1 4,0Z" style="opacity: 1; stroke-width: 0px; fill: rgb(31, 119, 180); fill-opacity: 1;"/><path class="point" transform="translate(284.32,234.22)" d="M4,0A4,4 0 1,1 0,-4A4,4 0 0,1 4,0Z" style="opacity: 1; stroke-width: 0px; fill: rgb(31, 119, 180); fill-opacity: 1;"/><path class="point" transform="translate(300.63,225.84)" d="M4,0A4,4 0 1,1 0,-4A4,4 0 0,1 4,0Z" style="opacity: 1; stroke-width: 0px; fill: rgb(31, 119, 180); fill-opacity: 1;"/><path class="point" transform="translate(316.95,217.46)" d="M4,0A4,4 0 1,1 0,-4A4,4 0 0,1 4,0Z" style="opacity: 1; stroke-width: 0px; fill: rgb(31, 119, 180); fill-opacity: 1;"/><path class="point" transform="translate(333.26,179.73)" d="M4,0A4,4 0 1,1 0,-4A4,4 0 0,1 4,0Z" style="opacity: 1; stroke-width: 0px; fill: rgb(31, 119, 180); fill-opacity: 1;"/><path class="point" transform="translate(349.58,230.03)" d="M4,0A4,4 0 1,1 0,-4A4,4 0 0,1 4,0Z" style="opacity: 1; stroke-width: 0px; fill: rgb(31, 119, 180); fill-opacity: 1;"/><path class="point" transform="translate(365.89,225.84)" d="M4,0A4,4 0 1,1 0,-4A4,4 0 0,1 4,0Z" style="opacity: 1; stroke-width: 0px; fill: rgb(31, 119, 180); fill-opacity: 1;"/><path class="point" transform="translate(382.2,368.35)" d="M4,0A4,4 0 1,1 0,-4A4,4 0 0,1 4,0Z" style="opacity: 1; stroke-width: 0px; fill: rgb(31, 119, 180); fill-opacity: 1;"/><path class="point" transform="translate(398.52,24.65)" d="M4,0A4,4 0 1,1 0,-4A4,4 0 0,1 4,0Z" style="opacity: 1; stroke-width: 0px; fill: rgb(31, 119, 180); fill-opacity: 1;"/><path class="point" transform="translate(414.83,217.46)" d="M4,0A4,4 0 1,1 0,-4A4,4 0 0,1 4,0Z" style="opacity: 1; stroke-width: 0px; fill: rgb(31, 119, 180); fill-opacity: 1;"/><path class="point" transform="translate(431.15,213.27)" d="M4,0A4,4 0 1,1 0,-4A4,4 0 0,1 4,0Z" style="opacity: 1; stroke-width: 0px; fill: rgb(31, 119, 180); fill-opacity: 1;"/><path class="point" transform="translate(447.46,183.93)" d="M4,0A4,4 0 1,1 0,-4A4,4 0 0,1 4,0Z" style="opacity: 1; stroke-width: 0px; fill: rgb(31, 119, 180); fill-opacity: 1;"/><path class="point" transform="translate(463.78,217.46)" d="M4,0A4,4 0 1,1 0,-4A4,4 0 0,1 4,0Z" style="opacity: 1; stroke-width: 0px; fill: rgb(31, 119, 180); fill-opacity: 1;"/><path class="point" transform="translate(480.09,217.46)" d="M4,0A4,4 0 1,1 0,-4A4,4 0 0,1 4,0Z" style="opacity: 1; stroke-width: 0px; fill: rgb(31, 119, 180); fill-opacity: 1;"/><path class="point" transform="translate(496.41,217.46)" d="M4,0A4,4 0 1,1 0,-4A4,4 0 0,1 4,0Z" style="opacity: 1; stroke-width: 0px; fill: rgb(31, 119, 180); fill-opacity: 1;"/><path class="point" transform="translate(512.72,175.54)" d="M4,0A4,4 0 1,1 0,-4A4,4 0 0,1 4,0Z" style="opacity: 1; stroke-width: 0px; fill: rgb(31, 119, 180); fill-opacity: 1;"/><path class="point" transform="translate(529.03,175.54)" d="M4,0A4,4 0 1,1 0,-4A4,4 0 0,1 4,0Z" style="opacity: 1; stroke-width: 0px; fill: rgb(31, 119, 180); fill-opacity: 1;"/><path class="point" transform="translate(545.35,204.88)" d="M4,0A4,4 0 1,1 0,-4A4,4 0 0,1 4,0Z" style="opacity: 1; stroke-width: 0px; fill: rgb(31, 119, 180); fill-opacity: 1;"/><path class="point" transform="translate(561.66,204.88)" d="M4,0A4,4 0 1,1 0,-4A4,4 0 0,1 4,0Z" style="opacity: 1; stroke-width: 0px; fill: rgb(31, 119, 180); fill-opacity: 1;"/></g><g class="text"/></g><g class="trace scatter trace41e247" style="stroke-miterlimit: 2; opacity: 1;"><g class="fills"/><g class="errorbars"><g class="errorbar" style="opacity: 1;"><path class="yerror" d="M35.6,296.98h8m-4,0V348.84m-4,0h8" style="vector-effect: none; stroke-width: 2px; stroke: rgb(128, 128, 128); stroke-opacity: 1;"/></g><g class="errorbar" style="opacity: 1;"><path class="yerror" d="M51.91,258.52h8m-4,0V300.97m-4,0h8" style="vector-effect: none; stroke-width: 2px; stroke: rgb(128, 128, 128); stroke-opacity: 1;"/></g><g class="errorbar" style="opacity: 1;"><path class="yerror" d="M68.23,89.21h8m-4,0V156.16m-4,0h8" style="vector-effect: none; stroke-width: 2px; stroke: rgb(128, 128, 128); stroke-opacity: 1;"/></g><g class="errorbar" style="opacity: 1;"><path class="yerror" d="M84.54,218.65h8m-4,0V282.37m-4,0h8" style="vector-effect: none; stroke-width: 2px; stroke: rgb(128, 128, 128); stroke-opacity: 1;"/></g><g class="errorbar" style="opacity: 1;"><path class="yerror" d="M100.86,219.91h8m-4,0V284.99m-4,0h8" style="vector-effect: none; stroke-width: 2px; stroke: rgb(128, 128, 128); stroke-opacity: 1;"/></g><g class="errorbar" style="opacity: 1;"><path class="yerror" d="M133.49,166.43h8m-4,0V228.55m-4,0h8" style="vector-effect: none; stroke-width: 2px; stroke: rgb(128, 128, 128); stroke-opacity: 1;"/></g><g class="errorbar" style="opacity: 1;"><path class="yerror" d="M149.8,147.98h8m-4,0V206.45m-4,0h8" style="vector-effect: none; stroke-width: 2px; stroke: rgb(128, 128, 128); stroke-opacity: 1;"/></g><g class="errorbar" style="opacity: 1;"><path class="yerror" d="M166.12,254.53h8m-4,0V287.9m-4,0h8" style="vector-effect: none; stroke-width: 2px; stroke: rgb(128, 128, 128); stroke-opacity: 1;"/></g><g class="errorbar" style="opacity: 1;"><path class="yerror" d="M182.43,142.36h8m-4,0V205.44m-4,0h8" style="vector-effect: none; stroke-width: 2px; stroke: rgb(128, 128, 128); stroke-opacity: 1;"/></g><g class="errorbar" style="opacity: 1;"><path class="yerror" d="M198.74,240.46h8m-4,0V294.57m-4,0h8" style="vector-effect: none; stroke-width: 2px; stroke: rgb(128, 128, 128); stroke-opacity: 1;"/></g><g class="errorbar" style="opacity: 1;"><path class="yerror" d="M247.69,188.55h8m-4,0V234.44m-4,0h8" style="vector-effect: none; stroke-width: 2px; stroke: rgb(128, 128, 128); stroke-opacity: 1;"/></g><g class="errorbar" style="opacity: 1;"><path class="yerror" d="M264,191.44h8m-4,0V218.99m-4,0h8" style="vector-effect: none; stroke-width: 2px; stroke: rgb(128, 128, 128); stroke-opacity: 1;"/></g><g class="errorbar" style="opacity: 1;"><path class="yerror" d="M280.32,207.03h8m-4,0V263.24m-4,0h8" style="vector-effect: none; stroke-width: 2px; stroke: rgb(128, 128, 128); stroke-opacity: 1;"/></g><g class="errorbar" style="opacity: 1;"><path class="yerror" d="M296.63,189.67h8m-4,0V245.24m-4,0h8" style="vector-effect: none; stroke-width: 2px; stroke: rgb(128, 128, 128); stroke-opacity: 1;"/></g><g class="errorbar" style="opacity: 1;"><path class="yerror" d="M312.95,186.17h8m-4,0V244.02m-4,0h8" style="vector-effect: none; stroke-width: 2px; stroke: rgb(128, 128, 128); stroke-opacity: 1;"/></g><g class="errorbar" style="opacity: 1;"><path class="yerror" d="M329.26,178.14h8m-4,0V208.69m-4,0h8" style="vector-effect: none; stroke-width: 2px; stroke: rgb(128, 128, 128); stroke-opacity: 1;"/></g><g class="errorbar" style="opacity: 1;"><path class="yerror" d="M345.58,218.76h8m-4,0V245.81m-4,0h8" style="vector-effect: none; stroke-width: 2px; stroke: rgb(128, 128, 128); stroke-opacity: 1;"/></g><g class="errorbar" style="opacity: 1;"><path class="yerror" d="M361.89,210.77h8m-4,0V239.95m-4,0h8" style="vector-effect: none; stroke-width: 2px; stroke: rgb(128, 128, 128); stroke-opacity: 1;"/></g><g class="errorbar" style="opacity: 1;"><path class="yerror" d="M378.2,260.11h8m-4,0V319.97m-4,0h8" style="vector-effect: none; stroke-width: 2px; stroke: rgb(128, 128, 128); stroke-opacity: 1;"/></g><g class="errorbar" style="opacity: 1;"><path class="yerror" d="M394.52,88.98h8m-4,0V136.77m-4,0h8" style="vector-effect: none; stroke-width: 2px; stroke: rgb(128, 128, 128); stroke-opacity: 1;"/></g><g class="errorbar" style="opacity: 1;"><path class="yerror" d="M410.83,147.69h8m-4,0V178.02m-4,0h8" style="vector-effect: none; stroke-width: 2px; stroke: rgb(128, 128, 128); stroke-opacity: 1;"/></g><g class="errorbar" style="opacity: 1;"><path class="yerror" d="M427.15,129.65h8m-4,0V196.36m-4,0h8" style="vector-effect: none; stroke-width: 2px; stroke: rgb(128, 128, 128); stroke-opacity: 1;"/></g><g class="errorbar" style="opacity: 1;"><path class="yerror" d="M443.46,161.51h8m-4,0V219.3m-4,0h8" style="vector-effect: none; stroke-width: 2px; stroke: rgb(128, 128, 128); stroke-opacity: 1;"/></g><g class="errorbar" style="opacity: 1;"><path class="yerror" d="M459.78,183.27h8m-4,0V243.07m-4,0h8" style="vector-effect: none; stroke-width: 2px; stroke: rgb(128, 128, 128); stroke-opacity: 1;"/></g><g class="errorbar" style="opacity: 1;"><path class="yerror" d="M476.09,204.7h8m-4,0V242.95m-4,0h8" style="vector-effect: none; stroke-width: 2px; stroke: rgb(128, 128, 128); stroke-opacity: 1;"/></g><g class="errorbar" style="opacity: 1;"><path class="yerror" d="M492.41,161.39h8m-4,0V211.61m-4,0h8" style="vector-effect: none; stroke-width: 2px; stroke: rgb(128, 128, 128); stroke-opacity: 1;"/></g><g class="errorbar" style="opacity: 1;"><path class="yerror" d="M508.72,151.83h8m-4,0V192.53m-4,0h8" style="vector-effect: none; stroke-width: 2px; stroke: rgb(128, 128, 128); stroke-opacity: 1;"/></g><g class="errorbar" style="opacity: 1;"><path class="yerror" d="M525.03,160.47h8m-4,0V204.36m-4,0h8" style="vector-effect: none; stroke-width: 2px; stroke: rgb(128, 128, 128); stroke-opacity: 1;"/></g><g class="errorbar" style="opacity: 1;"><path class="yerror" d="M541.35,186.83h8m-4,0V228.32m-4,0h8" style="vector-effect: none; stroke-width: 2px; stroke: rgb(128, 128, 128); stroke-opacity: 1;"/></g><g class="errorbar" style="opacity: 1;"><path class="yerror" d="M557.66,180.25h8m-4,0V223.61m-4,0h8" style="vector-effect: none; stroke-width: 2px; stroke: rgb(128, 128, 128); stroke-opacity: 1;"/></g><g class="errorbar" style="opacity: 1;"><path class="yerror" d="M573.98,151.71h8m-4,0V216.14m-4,0h8" style="vector-effect: none; stroke-width: 2px; stroke: rgb(128, 128, 128); stroke-opacity: 1;"/></g></g><g class="lines"><path class="js-line" d="M39.6,322.91L55.91,279.74L72.23,122.69L88.54,250.51L104.86,252.45L137.49,197.49L153.8,177.21L170.12,271.21L186.43,173.9L202.74,267.51L251.69,211.5L268,205.21L284.32,235.14L300.63,217.46L316.95,215.09L333.26,193.42L349.58,232.29L365.89,225.36L382.2,290.04L398.52,112.88L414.83,162.86L431.15,163.01L447.46,190.41L463.78,213.17L480.09,223.82L496.41,186.5L512.72,172.18L529.03,182.42L545.35,207.57L561.66,201.93L577.98,183.93" style="vector-effect: none; fill: none; stroke: rgb(255, 127, 14); stroke-opacity: 1; stroke-dasharray: 3px, 3px; stroke-width: 3px; opacity: 1;"/></g><g class="points"><path class="point" transform="translate(39.6,322.91)" d="M4,4H-4V-4H4Z" style="opacity: 1; stroke-width: 0px; fill: rgb(255, 127, 14); fill-opacity: 1;"/><path class="point" transform="translate(55.91,279.74)" d="M4,4H-4V-4H4Z" style="opacity: 1; stroke-width: 0px; fill: rgb(255, 127, 14); fill-opacity: 1;"/><path class="point" transform="translate(72.23,122.69)" d="M4,4H-4V-4H4Z" style="opacity: 1; stroke-width: 0px; fill: rgb(255, 127, 14); fill-opacity: 1;"/><path class="point" transform="translate(88.54,250.51)" d="M4,4H-4V-4H4Z" style="opacity: 1; stroke-width: 0px; fill: rgb(255, 127, 14); fill-opacity: 1;"/><path class="point" transform="translate(104.86,252.45)" d="M4,4H-4V-4H4Z" style="opacity: 1; stroke-width: 0px; fill: rgb(255, 127, 14); fill-opacity: 1;"/><path class="point" transform="translate(137.49,197.49)" d="M4,4H-4V-4H4Z" style="opacity: 1; stroke-width: 0px; fill: rgb(255, 127, 14); fill-opacity: 1;"/><path class="point" transform="translate(153.8,177.21)" d="M4,4H-4V-4H4Z" style="opacity: 1; stroke-width: 0px; fill: rgb(255, 127, 14); fill-opacity: 1;"/><path class="point" transform="translate(170.12,271.21)" d="M4,4H-4V-4H4Z" style="opacity: 1; stroke-width: 0px; fill: rgb(255, 127, 14); fill-opacity: 1;"/><path class="point" transform="translate(186.43,173.9)" d="M4,4H-4V-4H4Z" style="opacity: 1; stroke-width: 0px; fill: rgb(255, 127, 14); fill-opacity: 1;"/><path class="point" transform="translate(202.74,267.51)" d="M4,4H-4V-4H4Z" style="opacity: 1; stroke-width: 0px; fill: rgb(255, 127, 14); fill-opacity: 1;"/><path class="point" transform="translate(251.69,211.5)" d="M4,4H-4V-4H4Z" style="opacity: 1; stroke-width: 0px; fill: rgb(255, 127, 14); fill-opacity: 1;"/><path class="point" transform="translate(268,205.21)" d="M4,4H-4V-4H4Z" style="opacity: 1; stroke-width: 0px; fill: rgb(255, 127, 14); fill-opacity: 1;"/><path class="point" transform="translate(284.32,235.14)" d="M4,4H-4V-4H4Z" style="opacity: 1; stroke-width: 0px; fill: rgb(255, 127, 14); fill-opacity: 1;"/><path class="point" transform="translate(300.63,217.46)" d="M4,4H-4V-4H4Z" style="opacity: 1; stroke-width: 0px; fill: rgb(255, 127, 14); fill-opacity: 1;"/><path class="point" transform="translate(316.95,215.09)" d="M4,4H-4V-4H4Z" style="opacity: 1; stroke-width: 0px; fill: rgb(255, 127, 14); fill-opacity: 1;"/><path class="point" transform="translate(333.26,193.42)" d="M4,4H-4V-4H4Z" style="opacity: 1; stroke-width: 0px; fill: rgb(255, 127, 14); fill-opacity: 1;"/><path class="point" transform="translate(349.58,232.29)" d="M4,4H-4V-4H4Z" style="opacity: 1; stroke-width: 0px; fill: rgb(255, 127, 14); fill-opacity: 1;"/><path class="point" transform="translate(365.89,225.36)" d="M4,4H-4V-4H4Z" style="opacity: 1; stroke-width: 0px; fill: rgb(255, 127, 14); fill-opacity: 1;"/><path class="point" transform="translate(382.2,290.04)" d="M4,4H-4V-4H4Z" style="opacity: 1; stroke-width: 0px; fill: rgb(255, 127, 14); fill-opacity: 1;"/><path class="point" transform="translate(398.52,112.88)" d="M4,4H-4V-4H4Z" style="opacity: 1; stroke-width: 0px; fill: rgb(255, 127, 14); fill-opacity: 1;"/><path class="point" transform="translate(414.83,162.86)" d="M4,4H-4V-4H4Z" style="opacity: 1; stroke-width: 0px; fill: rgb(255, 127, 14); fill-opacity: 1;"/><path class="point" transform="translate(431.15,163.01)" d="M4,4H-4V-4H4Z" style="opacity: 1; stroke-width: 0px; fill: rgb(255, 127, 14); fill-opacity: 1;"/><path class="point" transform="translate(447.46,190.41)" d="M4,4H-4V-4H4Z" style="opacity: 1; stroke-width: 0px; fill: rgb(255, 127, 14); fill-opacity: 1;"/><path class="point" transform="translate(463.78,213.17)" d="M4,4H-4V-4H4Z" style="opacity: 1; stroke-width: 0px; fill: rgb(255, 127, 14); fill-opacity: 1;"/><path class="point" transform="translate(480.09,223.82)" d="M4,4H-4V-4H4Z" style="opacity: 1; stroke-width: 0px; fill: rgb(255, 127, 14); fill-opacity: 1;"/><path class="point" transform="translate(496.41,186.5)" d="M4,4H-4V-4H4Z" style="opacity: 1; stroke-width: 0px; fill: rgb(255, 127, 14); fill-opacity: 1;"/><path class="point" transform="translate(512.72,172.18)" d="M4,4H-4V-4H4Z" style="opacity: 1; stroke-width: 0px; fill: rgb(255, 127, 14); fill-opacity: 1;"/><path class="point" transform="translate(529.03,182.42)" d="M4,4H-4V-4H4Z" style="opacity: 1; stroke-width: 0px; fill: rgb(255, 127, 14); fill-opacity: 1;"/><path class="point" transform="translate(545.35,207.57)" d="M4,4H-4V-4H4Z" style="opacity: 1; stroke-width: 0px; fill: rgb(255, 127, 14); fill-opacity: 1;"/><path class="point" transform="translate(561.66,201.93)" d="M4,4H-4V-4H4Z" style="opacity: 1; stroke-width: 0px; fill: rgb(255, 127, 14); fill-opacity: 1;"/><path class="point" transform="translate(577.98,183.93)" d="M4,4H-4V-4H4Z" style="opacity: 1; stroke-width: 0px; fill: rgb(255, 127, 14); fill-opacity: 1;"/></g><g class="text"/></g></g></g></g><path class="xlines-above crisp" d="M0,0" style="fill: none;"/><path class="ylines-above crisp" d="M0,0" style="fill: none;"/><g class="overlines-above"/><g class="xaxislayer-above"><g class="xtick"><text text-anchor="middle" x="0" y="458" transform="translate(113.91,0)" style="font-family: 'Times New Roman'; font-size: 14px; fill: rgb(42, 63, 95); fill-opacity: 1; white-space: pre; opacity: 1;">1900</text></g><g class="xtick"><text text-anchor="middle" x="0" y="458" style="font-family: 'Times New Roman'; font-size: 14px; fill: rgb(42, 63, 95); fill-opacity: 1; white-space: pre; opacity: 1;" transform="translate(195.49,0)">1920</text></g><g class="xtick"><text text-anchor="middle" x="0" y="458" style="font-family: 'Times New Roman'; font-size: 14px; fill: rgb(42, 63, 95); fill-opacity: 1; white-space: pre; opacity: 1;" transform="translate(277.06,0)">1940</text></g><g class="xtick"><text text-anchor="middle" x="0" y="458" style="font-family: 'Times New Roman'; font-size: 14px; fill: rgb(42, 63, 95); fill-opacity: 1; white-space: pre; opacity: 1;" transform="translate(358.63,0)">1960</text></g><g class="xtick"><text text-anchor="middle" x="0" y="458" style="font-family: 'Times New Roman'; font-size: 14px; fill: rgb(42, 63, 95); fill-opacity: 1; white-space: pre; opacity: 1;" transform="translate(440.2,0)">1980</text></g><g class="xtick"><text text-anchor="middle" x="0" y="458" style="font-family: 'Times New Roman'; font-size: 14px; fill: rgb(42, 63, 95); fill-opacity: 1; white-space: pre; opacity: 1;" transform="translate(521.78,0)">2000</text></g><g class="xtick"><text text-anchor="middle" x="0" y="458" style="font-family: 'Times New Roman'; font-size: 14px; fill: rgb(42, 63, 95); fill-opacity: 1; white-space: pre; opacity: 1;" transform="translate(603.35,0)">2020</text></g><g class="xtick"><text text-anchor="middle" x="0" y="458" style="font-family: 'Times New Roman'; font-size: 14px; fill: rgb(42, 63, 95); fill-opacity: 1; white-space: pre; opacity: 1;" transform="translate(684.92,0)">2040</text></g></g><g class="yaxislayer-above"><g class="ytick"><text text-anchor="end" x="57" y="4.8999999999999995" transform="translate(0,418.35)" style="font-family: 'Times New Roman'; font-size: 14px; fill: rgb(42, 63, 95); fill-opacity: 1; white-space: pre; opacity: 1;">0</text></g><g class="ytick"><text text-anchor="end" x="57" y="4.8999999999999995" style="font-family: 'Times New Roman'; font-size: 14px; fill: rgb(42, 63, 95); fill-opacity: 1; white-space: pre; opacity: 1;" transform="translate(0,376.44)">10</text></g><g class="ytick"><text text-anchor="end" x="57" y="4.8999999999999995" style="font-family: 'Times New Roman'; font-size: 14px; fill: rgb(42, 63, 95); fill-opacity: 1; white-space: pre; opacity: 1;" transform="translate(0,334.52)">20</text></g><g class="ytick"><text text-anchor="end" x="57" y="4.8999999999999995" style="font-family: 'Times New Roman'; font-size: 14px; fill: rgb(42, 63, 95); fill-opacity: 1; white-space: pre; opacity: 1;" transform="translate(0,292.61)">30</text></g><g class="ytick"><text text-anchor="end" x="57" y="4.8999999999999995" style="font-family: 'Times New Roman'; font-size: 14px; fill: rgb(42, 63, 95); fill-opacity: 1; white-space: pre; opacity: 1;" transform="translate(0,250.69)">40</text></g><g class="ytick"><text text-anchor="end" x="57" y="4.8999999999999995" style="font-family: 'Times New Roman'; font-size: 14px; fill: rgb(42, 63, 95); fill-opacity: 1; white-space: pre; opacity: 1;" transform="translate(0,208.78)">50</text></g><g class="ytick"><text text-anchor="end" x="57" y="4.8999999999999995" style="font-family: 'Times New Roman'; font-size: 14px; fill: rgb(42, 63, 95); fill-opacity: 1; white-space: pre; opacity: 1;" transform="translate(0,166.86)">60</text></g><g class="ytick"><text text-anchor="end" x="57" y="4.8999999999999995" style="font-family: 'Times New Roman'; font-size: 14px; fill: rgb(42, 63, 95); fill-opacity: 1; white-space: pre; opacity: 1;" transform="translate(0,124.95)">70</text></g><g class="ytick"><text text-anchor="end" x="57" y="4.8999999999999995" style="font-family: 'Times New Roman'; font-size: 14px; fill: rgb(42, 63, 95); fill-opacity: 1; white-space: pre; opacity: 1;" transform="translate(0,83.03)">80</text></g></g><g class="overaxes-above"/></g></g><g class="polarlayer"/><g class="smithlayer"/><g class="ternarylayer"/><g class="geolayer"/><g class="funnelarealayer"/><g class="pielayer"/><g class="iciclelayer"/><g class="treemaplayer"/><g class="sunburstlayer"/><g class="glimages"/><defs id="topdefs-887a80"><g class="clips"/><clipPath id="legend887a80"><rect width="157" height="67" x="1" y="1"/></clipPath></defs><g class="layer-above"><g class="imagelayer"/><g class="shapelayer"><g class="shape-group" data-index="0" clip-path="url(#clip887a80xy)"><path data-index="0" fill-rule="evenodd" d="M489.15,418.35L489.15,74.65" style="opacity: 1; stroke: rgb(128, 0, 128); stroke-opacity: 1; fill: rgb(0, 0, 0); fill-opacity: 0; stroke-dasharray: 9px, 9px; stroke-width: 3px;"/></g><g class="shape-group" data-index="1" clip-path="url(#clip887a80xy)"><path data-index="1" fill-rule="evenodd" d="M619.66,418.35L619.66,74.65" style="opacity: 1; stroke: rgb(128, 0, 128); stroke-opacity: 1; fill: rgb(0, 0, 0); fill-opacity: 0; stroke-dasharray: 9px, 9px; stroke-width: 3px;"/></g></g></g><g class="infolayer"><g class="legend" pointer-events="all" transform="translate(71.84,57.86000000000001)"><rect class="bg" shape-rendering="crispEdges" width="158" height="68" x="0.5" y="0.5" style="stroke: rgb(0, 0, 0); stroke-opacity: 1; fill: rgb(255, 255, 255); fill-opacity: 1; stroke-width: 1px;"/><g class="scrollbox" transform="" clip-path="url(#legend887a80)"><text class="legendtitletext" text-anchor="start" x="3" y="19.2" style="font-family: 'Times New Roman'; font-size: 14px; fill: rgb(42, 63, 95); fill-opacity: 1; white-space: pre;">Legend</text><g class="groups"><g class="traces" transform="translate(1,33.7)" style="opacity: 1;"><text class="legendtext" text-anchor="start" x="40" y="4.680000000000001" style="font-family: 'Times New Roman'; font-size: 12px; fill: rgb(42, 63, 95); fill-opacity: 1; white-space: pre;">True Values</text><g class="layers" style="opacity: 1;"><g class="legendfill"/><g class="legendlines"><path class="js-line" d="M5,0h30" style="fill: none; stroke: rgb(31, 119, 180); stroke-opacity: 1; stroke-width: 3px;"/></g><g class="legendsymbols"><g class="legendpoints"><path class="scatterpts" transform="translate(20,0)" d="M4,0A4,4 0 1,1 0,-4A4,4 0 0,1 4,0Z" style="opacity: 1; stroke-width: 0px; fill: rgb(31, 119, 180); fill-opacity: 1;"/></g></g></g><rect class="legendtoggle" x="0" y="-9.5" width="152" height="19" style="fill: rgb(0, 0, 0); fill-opacity: 0;"/></g><g class="traces" transform="translate(1,52.7)" style="opacity: 1;"><text class="legendtext" text-anchor="start" x="40" y="4.680000000000001" style="font-family: 'Times New Roman'; font-size: 12px; fill: rgb(42, 63, 95); fill-opacity: 1; white-space: pre;">Predictions (LSTM)</text><g class="layers" style="opacity: 1;"><g class="legendfill"/><g class="legendlines"><path class="js-line" d="M5,0h30" style="fill: none; stroke: rgb(255, 127, 14); stroke-opacity: 1; stroke-dasharray: 3px, 3px; stroke-width: 3px;"/></g><g class="legendsymbols"><g class="legendpoints"><path class="scatterpts" transform="translate(20,0)" d="M4,4H-4V-4H4Z" style="opacity: 1; stroke-width: 0px; fill: rgb(255, 127, 14); fill-opacity: 1;"/></g></g></g><rect class="legendtoggle" x="0" y="-9.5" width="152" height="19" style="fill: rgb(0, 0, 0); fill-opacity: 0;"/></g></g></g><rect class="scrollbar" rx="20" ry="3" width="0" height="0" x="0" y="0" style="fill: rgb(128, 139, 164); fill-opacity: 1;"/></g><g class="g-gtitle"><text class="gtitle" x="400" y="25" text-anchor="middle" dy="0em" style="opacity: 1; font-family: 'Times New Roman'; font-size: 20px; fill: rgb(42, 63, 95); fill-opacity: 1; white-space: pre;">USA Gold Metal Prediction vs. True Values (Bar)</text></g><g class="g-xtitle"><text class="xtitle" x="404" y="487.4" text-anchor="middle" style="opacity: 1; font-family: 'Times New Roman'; font-size: 17px; fill: rgb(42, 63, 95); fill-opacity: 1; white-space: pre;">Year</text></g><g class="g-ytitle"><text class="ytitle" transform="rotate(-90,18.549999999999997,246.5)" x="18.549999999999997" y="246.5" text-anchor="middle" style="opacity: 1; font-family: 'Times New Roman'; font-size: 17px; fill: rgb(42, 63, 95); fill-opacity: 1; white-space: pre;">Medal</text></g><g class="annotation" data-index="0" style="opacity: 1;"><g class="annotation-text-g" transform="rotate(0,489.15,62.08)"><g class="cursor-pointer" transform="translate(444,53)"><rect class="bg" x="0.5" y="0.5" width="89" height="17" style="stroke-width: 1px; stroke: rgb(0, 0, 0); stroke-opacity: 0; fill: rgb(0, 0, 0); fill-opacity: 0;"/><text class="annotation-text" text-anchor="middle" x="45.5" y="13" style="font-family: 'Times New Roman'; font-size: 12px; fill: rgb(128, 0, 128); fill-opacity: 1; white-space: pre;">Train-Test Split</text></g></g></g><g class="annotation" data-index="1" style="opacity: 1;"><g class="annotation-text-g" transform="rotate(0,689,212.97)"><g class="cursor-pointer" transform="translate(628,204)"><rect class="bg" x="0.5" y="0.5" width="121" height="17" style="stroke-width: 1px; stroke: rgb(0, 0, 0); stroke-opacity: 0; fill: rgb(0, 0, 0); fill-opacity: 0;"/><text class="annotation-text" text-anchor="middle" x="61" y="13" style="font-family: 'Times New Roman'; font-size: 12px; fill: rgb(255, 0, 0); fill-opacity: 1; white-space: pre;">Prediction Point: 44</text></g></g></g><g class="annotation" data-index="2" style="opacity: 1;"><g class="annotation-text-g" transform="rotate(0,619.66,62.08)"><g class="cursor-pointer" transform="translate(572,53)"><rect class="bg" x="0.5" y="0.5" width="94" height="17" style="stroke-width: 1px; stroke: rgb(0, 0, 0); stroke-opacity: 0; fill: rgb(0, 0, 0); fill-opacity: 0;"/><text class="annotation-text" text-anchor="middle" x="47.5" y="13" style="font-family: 'Times New Roman'; font-size: 12px; fill: rgb(128, 0, 128); fill-opacity: 1; white-space: pre;">Prediction Split</text></g></g></g></g></svg>